<mxfile host="Electron" modified="2024-03-12T23:58:36.715Z" agent="Mozilla/5.0 (Macintosh; Intel Mac OS X 10_15_7) AppleWebKit/537.36 (KHTML, like Gecko) draw.io/21.2.8 Chrome/112.0.5615.165 Electron/24.2.0 Safari/537.36" etag="-ngCrZ-XVFMFEgmeWsAK" version="21.2.8" type="device">
  <diagram name="Page-1" id="vob6mlJYGoD9x8vU_uJa">
    <mxGraphModel dx="1026" dy="598" grid="1" gridSize="10" guides="1" tooltips="1" connect="1" arrows="1" fold="1" page="1" pageScale="1" pageWidth="827" pageHeight="1169" math="0" shadow="0">
      <root>
        <mxCell id="0" />
        <mxCell id="1" parent="0" />
        <mxCell id="Yu8XarsOaYoqGkIil_jq-12" value="" style="rounded=0;whiteSpace=wrap;html=1;fillColor=#050505;" vertex="1" parent="1">
          <mxGeometry x="120" y="230" width="490" height="160" as="geometry" />
        </mxCell>
        <mxCell id="Yu8XarsOaYoqGkIil_jq-10" value="" style="rounded=0;whiteSpace=wrap;html=1;" vertex="1" parent="1">
          <mxGeometry x="110" y="220" width="490" height="160" as="geometry" />
        </mxCell>
        <mxCell id="Yu8XarsOaYoqGkIil_jq-2" value="&lt;h1&gt;&lt;span style=&quot;background-color: initial;&quot;&gt;Request by user&amp;nbsp;&lt;/span&gt;&quot;Articulate Pigeon&quot;&lt;br&gt;&lt;/h1&gt;" style="text;html=1;strokeColor=none;fillColor=none;spacing=5;spacingTop=-20;whiteSpace=wrap;overflow=hidden;rounded=0;" vertex="1" parent="1">
          <mxGeometry x="130" y="230" width="430" height="120" as="geometry" />
        </mxCell>
        <mxCell id="Yu8XarsOaYoqGkIil_jq-4" value="Gaza verified" style="rounded=1;whiteSpace=wrap;html=1;fontFamily=Courier New;fontStyle=1;fillColor=#dae8fc;strokeColor=#6c8ebf;strokeWidth=2;" vertex="1" parent="1">
          <mxGeometry x="130" y="280" width="120" height="30" as="geometry" />
        </mxCell>
        <mxCell id="Yu8XarsOaYoqGkIil_jq-5" value="ID verified" style="rounded=1;whiteSpace=wrap;html=1;fontFamily=Courier New;fontStyle=1;fillColor=#fff2cc;strokeColor=#d6b656;strokeWidth=2;" vertex="1" parent="1">
          <mxGeometry x="260" y="280" width="110" height="30" as="geometry" />
        </mxCell>
        <mxCell id="Yu8XarsOaYoqGkIil_jq-6" value="Verified: Doctor" style="rounded=1;whiteSpace=wrap;html=1;fontFamily=Courier New;fontStyle=1;fillColor=#f8cecc;strokeColor=#b85450;strokeWidth=2;" vertex="1" parent="1">
          <mxGeometry x="380" y="280" width="140" height="30" as="geometry" />
        </mxCell>
        <mxCell id="Yu8XarsOaYoqGkIil_jq-8" value="Has the tank across the mosque on Salah-Eddin street still there?" style="text;html=1;strokeColor=none;fillColor=none;align=left;verticalAlign=middle;whiteSpace=wrap;rounded=0;" vertex="1" parent="1">
          <mxGeometry x="130" y="340" width="430" height="30" as="geometry" />
        </mxCell>
        <mxCell id="Yu8XarsOaYoqGkIil_jq-11" value="" style="endArrow=none;html=1;strokeWidth=3;rounded=0;opacity=25;" edge="1" parent="1">
          <mxGeometry width="50" height="50" relative="1" as="geometry">
            <mxPoint x="130" y="330" as="sourcePoint" />
            <mxPoint x="570" y="330" as="targetPoint" />
          </mxGeometry>
        </mxCell>
      </root>
    </mxGraphModel>
  </diagram>
</mxfile>
